<?xml version="1.0" encoding="utf-8"?>
<!-- Generator: Adobe Illustrator 19.0.0, SVG Export Plug-In . SVG Version: 6.00 Build 0)  -->
<svg version="1.1" id="Layer_1" xmlns="http://www.w3.org/2000/svg" xmlns:xlink="http://www.w3.org/1999/xlink" x="0px" y="0px"
	 viewBox="0 0 87.7 29.7" style="enable-background:new 0 0 87.7 29.7;" xml:space="preserve">
<style type="text/css">
	.st0{fill:none;stroke:#FFFFFF;stroke-dasharray:3.076,2.076;}
	.st1{fill:none;stroke:#FFFFFF;stroke-dasharray:3.158,2.158;}
	.st2{fill:none;stroke:#FFFFFF;stroke-dasharray:3.003,2.003;}
	.st3{fill:none;stroke:#FFFFFF;}
</style>
<path class="st0" d="M0.6,26C2.4,8.5,29.6,0.7,40.7,9.5"/>
<path class="st1" d="M44.6,14.4c5.7,11.3-7.5,21.2-7.8,7.2"/>
<path class="st2" d="M37.4,15.5c4.8-21.2,38-17.7,48.6-3.1"/>
<path class="st3" d="M86.5,13.2c0.3,0.4,0.5,0.9,0.8,1.3 M36.8,20.5c0-0.5,0-1,0.1-1.6c0-0.5,0.1-1,0.2-1.5 M41.5,10.2
	c0.4,0.4,0.7,0.7,1.1,1.1c0.3,0.4,0.7,0.8,1,1.3 M0.6,29.6c0-0.5-0.1-1-0.1-1.5"/>
</svg>
