<?xml version="1.0" encoding="utf-8"?>
<!-- Generator: Adobe Illustrator 19.0.0, SVG Export Plug-In . SVG Version: 6.00 Build 0)  -->
<svg version="1.1" id="Layer_1" xmlns="http://www.w3.org/2000/svg" xmlns:xlink="http://www.w3.org/1999/xlink" x="0px" y="0px"
	 viewBox="0 0 15.6 17.5" enable-background="new 0 0 15.6 17.5" xml:space="preserve">
<path fill="#FFFFFF" d="M5.8,0c0,0-2,0-2,2v9.8c0,0,0,2,2,2h3.9c0,0,2,0,2-2V2c0,0,0-2-2-2H5.8z"/>
<path fill="#FFFFFF" d="M8.8,16.8c0,0-1.2,1.6-2.5,0l-3-3.8l-2.7-3c0,0-2-2.2,1-2.2l5.9,0.1l6.9-0.1c0,0,2,0,0.7,1.5L11.8,13
	L8.8,16.8z"/>
</svg>
