<?xml version="1.0" encoding="utf-8"?>
<!-- Generator: Adobe Illustrator 19.0.0, SVG Export Plug-In . SVG Version: 6.00 Build 0)  -->
<svg version="1.1" id="Layer_1" xmlns="http://www.w3.org/2000/svg" xmlns:xlink="http://www.w3.org/1999/xlink" x="0px" y="0px"
	 viewBox="0 0 107.7 74.3" style="enable-background:new 0 0 107.7 74.3;" xml:space="preserve">
<style type="text/css">
	.st0{fill:#FFFFFF;}
</style>
<path class="st0" d="M95.9,36.4c-4.3,7.4-10.4,13.7-17.8,18c-0.3,0.2-0.1,0.6,0.2,0.5c7.5-4.4,13.7-10.7,18-18.2
	C96.5,36.4,96.1,36.1,95.9,36.4"/>
<path class="st0" d="M97.3,37.3c-1.8,4-4.3,7.5-7.5,10.5c-3.2,3-7,5.5-10.7,7.9c-0.3,0.2,0,0.6,0.2,0.5c3.9-2.5,7.8-5.1,11.1-8.3
	c3.1-3,5.5-6.5,7.3-10.4C97.9,37.2,97.4,37,97.3,37.3"/>
<path class="st0" d="M97.5,31.2c-0.2,1-0.5,2-1,3c-0.2,0.4-0.6,0.9-0.7,1.4c-0.2,0.9,0.3,1.6,1.1,1.9c0.9,0.4,1.6,0.3,2.2-0.5
	c1-1.3,1.6-3.2,2.2-4.6c0.1-0.3-0.4-0.5-0.5-0.2c-0.4,0.9-0.8,1.8-1.3,2.8c-0.2,0.5-0.4,1-0.7,1.4c-1.4,1.6-3,0.4-2.3-1.4
	c0.5-1.3,1.1-2.3,1.3-3.7C98.1,30.9,97.6,30.9,97.5,31.2"/>
<path class="st0" d="M97,30c1.6,1.1,5.8,4.4,7.5,1.9c1.1-1.5,1.7-3.6,2.5-5.2c0.6-1.3,1.1-2.6,0.1-3.8c-1.9-2.2-5.4-3.4-7.6-1.1
	c-1.1,1.1-1.8,2.7-2.3,4.2c-0.5,1.3-0.7,2.6,0,3.9c0.2,0.3,0.6,0.1,0.5-0.2c-1.1-2.1,0.4-4.9,1.6-6.7c1-1.5,2.5-2.5,4.4-1.8
	c1.1,0.4,2.6,1.2,3.2,2.2c0.9,1.4-0.1,2.8-0.7,4.1c-0.5,1.2-1.1,2.4-1.6,3.5c-0.5,0.9-1.1,1.6-2.2,1.3c-0.6-0.1-1.2-0.5-1.8-0.8
	c-1.1-0.6-2.1-1.2-3.1-1.9C97,29.3,96.7,29.8,97,30"/>
<path class="st0" d="M76.4,55.1c1.2-0.4,2.6,0.3,2.5,1.7c-0.1,1-1,1.6-1.7,2.1c-1.1,0.7-2.2,1.2-3.3,1.9c-2.3,1.2-4.6,2.5-6.9,3.5
	c-2.5,1.1-5,2.1-7.6,2.8c-2.4,0.6-5.6,1.7-8,0.6C51,67.5,50.7,68,51,68.1c2.8,1.3,6.5,0.1,9.3-0.8c3.6-1.1,7-2.6,10.3-4.3
	c1.7-0.9,3.4-1.8,5.1-2.8c1.2-0.6,2.9-1.3,3.4-2.6c0.9-2-1.2-3.7-3-3C75.9,54.7,76.1,55.2,76.4,55.1"/>
<path class="st0" d="M76.1,54.7c-4.8,3.3-9.9,6.1-15.3,8.2c-0.7,0.3-1.3,0.6-2,0.7c-0.8,0.2-1.4,0-2.2-0.1c-0.8-0.1-1.6,0-2.4,0.3
	c-1.7,0.6-2.9,2-3.3,3.8c-0.1,0.3,0.4,0.5,0.5,0.2c0.5-2.3,2.7-4,5.2-3.7c1.1,0.1,1.8,0.2,2.8-0.1c1-0.3,2-0.8,3-1.2
	c4.9-2,9.6-4.6,13.9-7.6C76.6,55,76.4,54.5,76.1,54.7"/>
<path class="st0" d="M63.4,49.9c0.5-0.2,1,0,1.2,0.5c0.2,0.5-0.1,1-0.6,1.2c-0.3,0.1-0.1,0.6,0.2,0.5c0.7-0.3,1.1-1.1,0.9-1.8
	c-0.3-0.7-1.1-1.1-1.8-0.8C63,49.5,63.1,50,63.4,49.9"/>
<path class="st0" d="M60.6,62.6c3.1-2.3,4.6-6.4,4-10.2c-0.3-1.9-1.2-3.9-3.1-4.6c-1.7-0.7-3.6-0.4-5.3,0.2
	c-4.6,1.5-8.9,4.6-12.2,8.1c-2.9,3.1-5.8,7.2-6,11.6c-0.1,2,0.4,4.5,2,5.8c1.8,1.4,4.9,0.4,6.8-0.3c0.3-0.1,0.1-0.6-0.2-0.5
	c-2,0.7-5.2,1.7-6.8-0.2c-1.3-1.5-1.5-3.8-1.3-5.6c0.5-3.9,2.9-7.4,5.5-10.2c3.4-3.7,17.1-14.7,19.8-5.2c1.1,3.9-0.4,8.1-3.6,10.6
	C60,62.5,60.3,62.8,60.6,62.6"/>
<path class="st0" d="M60.3,62.8c1.5-1.9,4.7-7.1,1.2-8.6c-1.7-0.7-3.4,0.2-4.8,1.1c-1.9,1.2-3.9,2.4-5.7,3.8c-1.9,1.4-3.8,3-5.4,4.7
	c-1.1,1.2-2.2,2.5-2.5,4.1c-0.6,3,1.9,5.4,4.9,4.7c0.3-0.1,0.2-0.6-0.1-0.5c-1.6,0.4-3.3-0.2-4.1-1.7c-0.7-1.4-0.1-3.1,0.7-4.3
	c1.6-2.5,4.2-4.5,6.5-6.2c1.3-1,2.7-1.9,4.1-2.8c1.3-0.8,2.6-1.8,4.1-2.3c0.9-0.3,2.4-0.3,3,0.6c0.7,1,0.3,2.2,0,3.2
	c-0.5,1.5-1.3,2.8-2.2,4C59.7,62.7,60.1,63,60.3,62.8"/>
<path class="st0" d="M58.9,63.4c0.9-1,3.6-5.2,0.6-5.3c-1.5-0.1-3.4,0.9-4.7,1.6c-1.5,0.8-3,1.7-4.4,2.8c-1.2,1-2.4,2.1-3.4,3.3
	c-0.6,0.8-1.5,1.9-1.5,3c0,0.9,0.5,2.1,1.4,2.5c1.2,0.5,2.3-0.2,3.3-0.9c0.3-0.2-0.1-0.6-0.4-0.4c-0.8,0.6-2.1,1.5-3.1,0.5
	c-0.3-0.3-0.5-0.8-0.6-1.2c-0.2-1,0.4-1.8,0.9-2.6c1.1-1.5,2.5-2.8,3.9-3.9c1.6-1.3,3.5-2.4,5.4-3.2c0.8-0.3,4.2-2,4,0.5
	c-0.1,1.1-1,2.2-1.7,2.9C58.3,63.3,58.7,63.7,58.9,63.4"/>
<path class="st0" d="M59.5,62.1c-0.5-2.8-5.4,0.2-6.5,1c-1.3,1.1-2.5,2.4-3.4,3.8c-0.6,1-1,2.1-0.3,3.2c0.2,0.3,0.6-0.1,0.4-0.4
	c-1.3-1.7,1.9-4.9,3.1-5.9c0.7-0.7,1.6-1.2,2.4-1.7c0.6-0.3,3.4-1.5,3.7-0.1C59,62.5,59.5,62.4,59.5,62.1"/>
<path class="st0" d="M52.8,68.2c-2,1.9-4.2,3.5-6.7,4.8c-0.3,0.2-0.1,0.6,0.2,0.5c2.5-1.3,4.8-2.9,6.8-4.9
	C53.3,68.4,53,68,52.8,68.2"/>
<path class="st0" d="M51.4,70.7c0.5,0-0.6,1-0.6,1c-0.2,0.2-0.5,0.4-0.7,0.6c-0.5,0.4-2.3,1.8-2.8,0.7c-0.2-0.3-0.6-0.1-0.5,0.2
	c0.8,1.6,2.9,0,3.8-0.7c0.4-0.3,2.6-2.3,0.8-2.4C51.1,70.1,51.1,70.6,51.4,70.7"/>
<path class="st0" d="M60.6,28.9c-1.3-2.3-2.8-4.9-5.4-6.1c-2.7-1.3-6.1-0.8-8.9,0.1c-5.4,1.8-9.7,5.9-10.5,11.7
	c-0.7,4.9,1.4,10.9,6.1,13.1c5.2,2.4,11.9-0.9,15.3-4.9c1.6-1.9,3.2-4.2,3.9-6.6C62,33.7,61.5,31.3,60.6,28.9
	c-0.1-0.3-0.6-0.1-0.5,0.2c0.8,2.1,1.3,4.3,0.6,6.5c-0.5,1.7-1.4,3.1-2.4,4.6c-3,4.4-7.7,7.8-13.3,7.6c-5.5-0.3-8.7-6-8.8-11.1
	c-0.1-5.4,3-9.9,7.7-12.3c2.9-1.5,6.7-2.5,10-1.6c3,0.8,4.8,3.7,6.2,6.3C60.3,29.5,60.8,29.2,60.6,28.9"/>
<path class="st0" d="M45.5,48.5c-0.2,0.8-0.9,1.5-1.7,1.5c-0.3,0-0.4,0.5,0,0.5c1.1,0,2-0.8,2.3-1.8C46.1,48.3,45.6,48.1,45.5,48.5"
	/>
<path class="st0" d="M4.8,11.2c-1.1-2-1-4.7,0.2-6.7c1.3-2.3,3.7-3.5,6.3-4c0-0.2-0.1-0.3-0.1-0.5C8.4,0.6,5.5,1.8,3.2,3.5
	C1.8,4.7,0.5,6.2,0.1,8c-0.5,2.3,0.6,4.5,1.8,6.3c3.3,4.9,7.1,9.5,11,14c1.9,2.2,3.9,4.2,5.9,6.2c3.3,3.3,6.9,6.6,9.4,10.5
	c1.5,2.3,2.3,4.9,2.3,7.7c0,2.2-0.5,4.3-0.3,6.5c0.3,4.4,3.6,7.2,7.7,8.1c0.3,0.1,0.5-0.4,0.2-0.5c-2-0.5-4-1.4-5.4-2.9
	c-1.5-1.7-2-3.9-1.9-6.1c0.1-3.8,0.8-7.3-0.8-10.9c-1.7-3.9-4.8-6.9-7.7-9.8c-2.4-2.5-5-4.9-7.3-7.5c-3.6-3.9-7-8.2-10.2-12.4
	c-1.5-2-3.3-4.1-3.9-6.6C0.2,8.5,0.9,6.4,2.5,4.8c2.3-2.3,5.7-3.6,8.8-4.3c0.3-0.1,0.2-0.6-0.1-0.5C8.4,0.5,5.7,2,4.4,4.5
	c-1.1,2.1-1.2,4.8,0,6.9C4.5,11.7,5,11.5,4.8,11.2"/>
<path class="st0" d="M4.5,11.6c2.5,3.8,5.4,7.3,8.3,10.8c3,3.7,6.2,7.2,9.6,10.6c3.2,3.2,6.5,6.5,8.7,10.5c1.1,2.1,2,4.3,2.3,6.7
	c0.3,2.2,0,4.3,0,6.5c0,3.3,1.2,7.4,4.8,8.2c0.3,0.1,0.5-0.4,0.2-0.5c-4.4-1-4.5-6.3-4.4-9.9c0.2-4-0.4-7.5-2.3-11.1
	c-2-3.7-4.8-6.7-7.7-9.6c-3.2-3.2-6.2-6.4-9.2-9.8c-3.4-4.1-6.9-8.1-9.8-12.6C4.7,11.1,4.3,11.3,4.5,11.6"/>
<path class="st0" d="M11.1,0.5c2.7,0.6,5.3,2,7.6,3.5c5.8,3.9,9.9,9.9,12,16.5c0.9,2.6,1.3,5.3,1.4,8c0.1,2.1,0,4.1,0.2,6.2
	c0.5,5.2,3.4,10.4,7.4,13.7c2.6,2.1,8.6,4.7,9.7-0.4c-0.2,0-0.3,0-0.5,0c0.2,1.9-1.7,3.2-3.3,3.6c-2.6,0.7-4.9-0.6-6.9-2.2
	c-4.7-3.7-8.2-8.8-8.7-14.8c-0.3-3.3,0.5-6.7-0.1-9.9c-0.5-2.5-1.5-4.8-2.7-7c-0.8-1.5-1.7-3.1-2.6-4.6c-1.7-2.8-4.2-4.9-7-6.6
	C15,4.9,11.4,3,8.1,3.9C5.8,4.5,3.7,6.7,4,9.3c0,0.3,0.5,0.2,0.5-0.1C4.3,7.4,5.4,5.9,6.8,5c1.7-1.1,3.8-0.9,5.6-0.4
	c3.4,1,6.9,3.2,9.4,5.7c1.7,1.7,2.7,3.7,3.9,5.8c1.3,2.1,2.4,4.3,3.1,6.7c1,3.2,0.5,6.3,0.5,9.7c0,3.1,0.5,6.3,2,9.1
	c2.1,4,5.8,8.2,10,10.1c2.1,1,4.7,0.9,6.6-0.5c1-0.7,1.7-2,1.6-3.2c0-0.3-0.4-0.3-0.5,0c-1.2,5.5-8,1.2-10.1-1
	c-3.9-3.9-6-9-6.1-14.4c0-2,0-4-0.2-6.1c-0.3-2.7-0.9-5.3-1.9-7.8c-2.3-5.7-6-10.9-11-14.6c-2.4-1.7-5.3-3.4-8.3-4
	C11-0.1,10.8,0.4,11.1,0.5"/>
</svg>
