<?xml version="1.0" encoding="utf-8"?>
<!-- Generator: Adobe Illustrator 19.0.0, SVG Export Plug-In . SVG Version: 6.00 Build 0)  -->
<svg version="1.1" id="Layer_1" xmlns="http://www.w3.org/2000/svg" xmlns:xlink="http://www.w3.org/1999/xlink" x="0px" y="0px"
	 viewBox="0 0 18.3 18.9" enable-background="new 0 0 18.3 18.9" xml:space="preserve">
<path fill="#FFFFFF" d="M6.5,8.7C6.5,8.7,6.6,8.7,6.5,8.7c0.4,0,0.7-0.4,0.7-0.8c0-0.1,0-0.3,0-0.4c0-2,1.6-3.6,3.6-3.6
	c0.2,0,0.4,0,0.5,0C11.7,4,12,3.8,12.1,3.4c0.1-0.4-0.2-0.7-0.6-0.8c-0.2,0-0.5-0.1-0.8-0.1c-2.7,0-5,2.2-5,5c0,0.2,0,0.4,0,0.5
	C5.9,8.4,6.2,8.7,6.5,8.7"/>
<path fill="#FFFFFF" d="M16.7,7.5c0-3.3-2.7-5.9-5.9-5.9c-3.3,0-5.9,2.7-5.9,5.9c0,3.3,2.7,5.9,5.9,5.9C14,13.4,16.7,10.8,16.7,7.5
	 M0.4,16.4L4.7,12c-0.9-1.3-1.5-2.8-1.5-4.5C3.3,3.4,6.6,0,10.8,0s7.5,3.4,7.5,7.5c0,4.2-3.4,7.5-7.5,7.5c-1.4,0-2.7-0.4-3.9-1.1
	l-4.4,4.4c-0.3,0.3-0.7,0.4-1.1,0.4c-0.4,0-0.8-0.1-1-0.4C-0.1,17.9-0.1,16.9,0.4,16.4"/>
</svg>
