<?xml version="1.0" encoding="utf-8"?>
<!-- Generator: Adobe Illustrator 19.0.0, SVG Export Plug-In . SVG Version: 6.00 Build 0)  -->
<svg version="1.1" id="Layer_1" xmlns="http://www.w3.org/2000/svg" xmlns:xlink="http://www.w3.org/1999/xlink" x="0px" y="0px"
	 viewBox="0 0 122.7 20.1" enable-background="new 0 0 122.7 20.1" xml:space="preserve">
<path fill="#ED135D" d="M19.3,6.7C17.9,2.8,14.2,0,9.9,0C4.4,0,0,4.5,0,10.1c0,5.6,4.4,10.1,9.9,10.1c4.4,0,8.2-2.9,9.4-7H6.5
	L19.3,6.7z M30.6,0c-4.3,0-8,2.8-9.4,6.7l12.8,6.5H21.2c1.3,4,5,7,9.4,7c5.5,0,9.9-4.5,9.9-10.1C40.6,4.5,36.1,0,30.6,0"/>
<path fill="#ED135D" d="M53.2,7.3c-1.5-0.4-2.9-0.7-2.8-1.3c0.1-0.6,0.2-0.8,1.3-0.8h6.2V2.8h-5.8c-2.9,0-4.6,1.2-4.6,3.2
	c0,2.4,2.9,3.1,5.2,3.7c1.6,0.4,3,0.8,3,1.4c0,0.4-0.1,0.9-1.3,0.9h-6.8v2.4h6.8c2.6,0,4.2-1.3,4.2-3.3C58.5,8.6,55.5,7.8,53.2,7.3"
	/>
<path fill="#ED135D" d="M66.4,2.6c-3.8,0-6.5,2.4-6.5,5.9c0,3.5,2.7,6.2,6.2,6.2h0c1.7,0,2.6-0.5,3.4-1.1l0.1,0l0,0v-3.1l-0.4,0.4
	c-0.6,0.7-1.6,1.5-2.9,1.5c-1.1,0-2-0.4-2.8-1.1c-0.7-0.7-1.1-1.6-1.1-2.5c0-2.2,1.6-3.7,3.8-3.7c1.8,0,3.8,1.5,3.8,3.5v6h2.7V8.6
	C72.8,5.3,70.2,2.6,66.4,2.6"/>
<path fill="#ED135D" d="M94,2.6c-1.5,0-2.9,0.5-3.8,1.5c-0.9-0.9-2.2-1.5-3.8-1.5c-2.7,0-4.8,1.8-4.8,4v7.8h2.8V7.1
	c0-1.3,0.8-2.1,2.1-2.1c1.6,0,2.3,0.8,2.3,2.5l0,7h2.8v-7C91.7,5.7,92.4,5,94,5c1.3,0,2.1,0.8,2.1,2.1v7.4h2.8V6.6
	C98.9,4.3,96.7,2.6,94,2.6"/>
<path fill="#ED135D" d="M107.2,2.6c-3.8,0-6.5,2.4-6.5,5.9c0,3.5,2.7,6.2,6.2,6.2h0c1.7,0,2.6-0.5,3.4-1.1l0.1,0l0,0v-3.1l-0.3,0.4
	c-0.6,0.7-1.6,1.5-2.9,1.5c-1.1,0-2-0.4-2.8-1.1c-0.7-0.7-1.1-1.6-1.1-2.5c0-2.2,1.6-3.7,3.8-3.7c1.8,0,3.8,1.5,3.8,3.5v6h2.7V8.6
	C113.6,5.3,111.1,2.6,107.2,2.6"/>
<path fill="#ED135D" d="M118.1,2.8V0h-2.8v10.6c0,1.2,0.4,2.1,1.1,2.8c0.7,0.7,1.7,1,3,1h3.4v-2.4h-3.1c-1.2,0-1.6-0.3-1.6-1.2V5.2
	l4.6,0V2.8H118.1z"/>
<path fill="#ED135D" d="M77.7,10.9L77.7,10.9l0-10.9h-2.8v10.6c0,1.2,0.4,2.1,1.1,2.8c0.7,0.7,1.7,1,3,1h1.1v-2.4h-0.8
	C78.1,12,77.7,11.8,77.7,10.9"/>
</svg>
