<?xml version="1.0" encoding="utf-8"?>
<!-- Generator: Adobe Illustrator 19.0.0, SVG Export Plug-In . SVG Version: 6.00 Build 0)  -->
<svg version="1.1" id="Layer_1" xmlns="http://www.w3.org/2000/svg" xmlns:xlink="http://www.w3.org/1999/xlink" x="0px" y="0px"
	 viewBox="0 0 78.8 67.1" style="enable-background:new 0 0 78.8 67.1;" xml:space="preserve">
<style type="text/css">
	.st0{fill:#FFFFFF;}
	.st1{fill:none;stroke:#FFFFFF;stroke-width:0.705;stroke-miterlimit:10;}
</style>
<path class="st0" d="M30.5,28.1c4.8-5.6,9.6-11,14.6-16.3c2.5-2.7,5.1-5.3,7.6-7.9c0.8-0.8,1.3-1.6,2.4-1.7c1,0,0.8,0,1.3,0.7
	c0.2,0.3,0.4,0.7,0.7,1c0.8,1.3,1.7,2.5,2.7,3.7c4.1,5.1,9,9.5,13.4,14.3c1.6,1.8,4.5,4.1,4.8,6.7c0.2,1.7-0.1,3.7-0.2,5.5
	c-0.1,2.1-0.1,4.1-0.2,6.2c-0.1,4.1-0.3,8.2-0.4,12.3c-0.1,4.2,0.3,8.3,0.1,12.5c0,0.5,0.7,0.5,0.7,0c0.1-4-0.2-7.9-0.2-11.9
	c0.1-4.1,0.3-8.2,0.4-12.3c0.1-2.1,0.1-4.1,0.2-6.2c0.1-2,0.4-4.2,0.2-6.2c-0.3-2.2-2-3.8-3.4-5.4C70.7,17.7,65.2,13,60.7,7.5
	c-1.2-1.5-2.4-3.1-3.5-4.7c-0.4-0.6-0.9-1.9-1.8-2c-1.1-0.2-2.3,1.6-3,2.3c-1.4,1.4-2.8,2.9-4.2,4.3C42,13.9,36,20.7,30,27.6
	C29.8,27.9,30.2,28.4,30.5,28.1"/>
<path class="st0" d="M29.8,67c16,0.2,32-0.3,48-1.6c0.4,0,0.5-0.7,0-0.7c-16,1.3-32,1.8-48,1.6C29.3,66.3,29.3,67,29.8,67"/>
<path class="st0" d="M29.6,28.1c0.7,6.3,0.8,12.5,0.5,18.9c-0.3,6.4-0.3,12.8-0.2,19.2c0,0.5,0.7,0.5,0.7,0
	c-0.1-6.4-0.1-12.8,0.2-19.2c0.3-6.4,0.2-12.6-0.5-18.9C30.2,27.7,29.5,27.6,29.6,28.1"/>
<path class="st0" d="M32.5,25.4c4.3,0,8.6-0.2,12.9-0.6c0.4,0,0.5-0.7,0-0.7c-4.3,0.4-8.6,0.6-12.9,0.6C32,24.7,32,25.4,32.5,25.4"
	/>
<path class="st0" d="M38.8,18.3c1.6,0.8,2.1,2.4,3.1,3.8c0.9,1.2,2,2.1,3.4,2.6c0.4,0.1,0.6-0.5,0.2-0.7c-2-0.7-2.9-2-4-3.7
	c-0.6-1-1.3-2-2.4-2.5C38.8,17.5,38.4,18.1,38.8,18.3"/>
<path class="st0" d="M76.5,26.9c-8-0.1-15.9-0.2-23.9-0.2c-3.7,0-7.3,0.3-11,0.7c-3.9,0.4-7.7,0.1-11.5-0.3c-0.5,0-0.5,0.7,0,0.7
	c3.7,0.4,7.5,0.7,11.2,0.3c3.8-0.4,7.5-0.7,11.3-0.7c8,0,15.9,0.1,23.9,0.2C77,27.6,77,26.9,76.5,26.9"/>
<path class="st0" d="M76.2,27.3c0.8,6.2,0.6,12.6,0.2,18.8c-0.4,6.1,0,12.2-0.1,18.4c0,0.5,0.7,0.5,0.7,0c0.1-6.4-0.3-12.7,0.1-19
	c0.4-6.1,0.5-12.3-0.2-18.3C76.8,26.7,76.1,26.9,76.2,27.3"/>
<path class="st0" d="M22.7,0.9c-4.1,4.2-8.1,8.5-12,12.9C8.8,16,6.9,18.3,5,20.5c-1.5,1.7-3.4,3.5-4.4,5.6c-1,2.2-0.4,5.1-0.4,7.4
	c0.1,3,0.1,6,0.2,9c0.1,6,0.2,12,0.4,18c0,0.5,0.7,0.5,0.7,0c-0.1-5.7-0.2-11.3-0.3-17C1,40.6,1,37.7,0.9,34.8
	c0-1.4-0.1-2.8-0.1-4.2c0-1.3-0.2-2.7,0.2-3.9c0.5-1.4,1.7-2.5,2.7-3.7C4.6,22,5.5,21,6.3,20c1.8-2.1,3.5-4.1,5.3-6.1
	c3.8-4.2,7.6-8.4,11.5-12.4C23.5,1.1,23,0.6,22.7,0.9"/>
<path class="st0" d="M22.9,1.2c5.5,0,10.9-0.1,16.4-0.2c2.7,0,5.4-0.1,8-0.2c1.4,0,2.8-0.1,4.2-0.1c1.3,0,3.7-0.5,4.5,0.9
	c0.2,0.4,0.8,0.1,0.6-0.3c-0.9-1.8-3.4-1.3-5.1-1.2c-3.1,0.1-6.3,0.1-9.4,0.2c-6.4,0.1-12.8,0.2-19.2,0.2
	C22.5,0.5,22.4,1.2,22.9,1.2"/>
<path class="st0" d="M29.5,66.2c-9.6-1.7-19.2-3.6-28.7-6c-0.4-0.1-0.6,0.6-0.2,0.7c9.5,2.3,19.1,4.3,28.7,6
	C29.7,66.9,29.9,66.2,29.5,66.2"/>
<path class="st0" d="M29.7,27c-9.5-0.2-19-1-28.4-2.4c-0.4-0.1-0.6,0.6-0.2,0.7c9.5,1.4,19,2.2,28.6,2.4
	C30.2,27.8,30.2,27.1,29.7,27"/>
<path class="st0" d="M78,26.8c-10.9-0.5-21.8-1.4-32.6-2.8c-0.4-0.1-0.5,0.6,0,0.7C56.2,26.1,67.1,27,78,27.5
	C78.5,27.5,78.5,26.8,78,26.8"/>
<path class="st0" d="M76.5,63.9c-7.9,0.3-15.8,0.5-23.6,0.8c-3.8,0.1-7.6,0.3-11.5,0.5c-1.9,0.1-3.9,0.3-5.8,0.4c-1,0-2,0.1-3.1,0.1
	c-0.5,0-1.5,0.2-2,0c0,0.2,0,0.4,0.1,0.6c0,0-0.1,0-0.1,0c-0.1-0.1-0.2-0.3-0.2-0.4c0,0,0,0.1,0,0.1c-0.1,0.4,0.6,0.6,0.7,0.2
	c0,0,0-0.1,0-0.1c0-0.2,0-0.4-0.2-0.4c0,0-0.1,0-0.1,0c-0.1,0-0.3,0-0.3,0.1c0,0-0.1,0.1-0.1,0.1c-0.1,0.2-0.2,0.5,0.1,0.6
	c0.9,0.5,2.6,0.1,3.7,0.1c2.1,0,4.1-0.2,6.2-0.3c4.1-0.2,8.1-0.4,12.2-0.6c8.1-0.3,16.2-0.5,24.3-0.8C76.9,64.6,76.9,63.8,76.5,63.9
	"/>
<path class="st0" d="M37.1,33.2c-2.1-0.2-3.7,1.5-3.4,3.5c0.3,2.1,2.3,3.2,4.3,3.2c1.7-0.1,3.5-0.1,5.2-0.2L64.7,39
	c1.7-0.1,3.3-0.1,5-0.2c1.8-0.1,4.4-0.7,4.2-3c-0.2-1.6-1.1-2.8-2.6-3.1c-1.7-0.4-3.8-0.1-5.5-0.1c-3.4,0.1-6.8,0.1-10.2,0.2
	C49.4,33,43.3,33.1,37.1,33.2c-0.5,0-0.5,0.7,0,0.7c10-0.2,20-0.4,30-0.6c1.7,0,4.6-0.5,5.6,1.2c0.2,0.3,0.4,0.9,0.4,1.2
	c-0.1,1.4-1.2,2.2-2.4,2.4c-0.4,0.1-0.8,0.1-1.3,0.1c-0.6,0-1.2,0-1.8,0.1c-5.9,0.2-11.8,0.4-17.7,0.5c-3,0.1-6,0.2-9,0.3
	c-0.7,0-1.5,0-2.2,0.1c-0.3,0-0.5,0-0.8,0c-1.6,0-3-0.7-3.3-2.3c-0.4-1.7,0.8-3.2,2.6-3C37.6,33.9,37.6,33.2,37.1,33.2"/>
<path class="st1" d="M52.2,54l2.7-0.8 M63.5,49.9l0.5,6.3l3.9,0.1 M60.1,49.8L60,56.1 M52.2,56.6l1.4-6.8l2.5,6.9 M43.3,57.3
	l0.9-6.7l2,2.1l1.3-2l1.1,6.8"/>
</svg>
