<?xml version="1.0" encoding="utf-8"?>
<!-- Generator: Adobe Illustrator 19.0.0, SVG Export Plug-In . SVG Version: 6.00 Build 0)  -->
<svg version="1.1" id="Layer_1" xmlns="http://www.w3.org/2000/svg" xmlns:xlink="http://www.w3.org/1999/xlink" x="0px" y="0px"
	 viewBox="0 0 135.2 124.5" style="enable-background:new 0 0 135.2 124.5;" xml:space="preserve">
<style type="text/css">
	.st0{fill:none;stroke:#FFFFFF;stroke-miterlimit:10;}
</style>
<path class="st0" d="M112.5,113.1c-1.6-0.1-3.2-0.5-4.7-1.1c-0.6-0.2-1.2-0.5-1.9-0.6c-0.7,0-1.4,0.2-1.7,0.8
	c-0.2,0.4-0.1,0.8-0.1,1.3c0.1,0.8,0.1,1.5,0.2,2.3c0.1,1.5,0.3,3,0.8,4.4c0.5,1.4,1.3,2.8,2.6,3.5c0.4,0.3,0.9,0.4,1.4,0.2
	c0.2-0.1,0.4-0.3,0.6-0.5c1-1,2-2.1,2.7-3.3c0.9-1.6,1.1-3.6,0.7-5.3c-0.1-0.4-0.3-0.9-0.6-1.2C111.8,113,113.4,113.4,112.5,113.1
	 M4.1,52.5c1.7-2.6,3.5-5.2,6.2-6.6c3.2-1.7,7.2-1.5,10.2-3.6c1.5-1.1,2.6-2.6,3.6-4.1c0.6-0.9,1.3-2,1.2-3.1
	c-0.1-0.7-0.5-1.4-0.4-2.2c0.1-0.8,0.7-1.5,1.2-2.1c3-3.2,5.9-6.4,8.9-9.6c0.6-0.7,1.4-1.4,2.3-1.6c0.3-0.1,0.7-0.1,1-0.3
	c0.7-0.4,0.7-1.4,1.2-2c0.7-0.8,2-0.5,3-0.2c1.9,0.7,3.9,1.4,5.8,2c0.3,0.1,0.7,0.2,1,0.2c0.7-0.1,1.1-0.8,1.2-1.5
	c0.1-0.7,0.1-1.4,0.5-2c0.4-0.7,1.2-1.2,2-1.1c-0.1-0.2-0.3-0.4-0.4-0.6c0.2-2.1,2.1-3.2,3.9-4.3c1.8-1.1,3.8-1.6,5.8-2
	c4.1-0.9,8.3-1.6,12.5-2.1c0.3,0,0.6-0.1,0.8,0c0.4,0.2,0.5,0.6,0.7,1c0.6,2.1,1.2,4.3,1.8,6.4c0.2,0.8,0.2,1.9-0.5,2
	c-0.3,0.1-0.6-0.1-0.9-0.1c-1-0.1-1.8,1-1.7,1.9c0.1,1,0.8,1.8,1.7,2.3c0.8,0.5,1.8,0.8,2.7,1.2c3.8,1.7,6.6,5.4,10.7,6.4
	c2.1,0.5,2.5-0.8,3-2.4c0.6-2,1.6-3.9,2.3-5.9c1.8-5.4,0.9-11.3,1.7-17c0.1-0.4,0.2-0.8,0.5-1.1c0.7-0.5,1.6,0.5,1.9,1.3
	c1.7,3.9,3.2,7.8,4.5,11.8c1,3,4.7,4.2,5.9,7.1c0.9,2.2,1.1,4.7,1.8,7c0.4,1.3,0.9,2.5,1.5,3.7c1.1,2.1,2.4,4.2,4.6,5.2
	c0.7,0.3,1.5,0.6,2.1,1.1c0.6,0.6,0.9,1.6,1.2,2.4c0.9,2.5,2.8,4.5,4.6,6.5c2.1,2.2,4.7,5.1,6.2,7.8c1.1,2.1,1.4,4.4,1.6,6.7
	c0.4,4,0.8,8,1,12.1c0,0.7,0.1,1.4-0.1,2c-0.2,0.8-0.6,1.5-1,2.3c-1.2,2.5-1.8,5.3-3.5,7.5c-0.9,1.2-2.1,2-3.2,3.1
	c-2.5,2.4-4,5.6-5,8.9c-0.5,1.6-0.9,3-1.2,4.6c-0.1,0.4-0.2,0.8-0.4,1.1c-0.5,0.8-1.6,0.8-2.6,0.9c-3.3,0.4-6.2,2.5-9.5,3
	c-2,0.3-4.1,0-6.1-0.3l-4.5-0.7c-1.7-0.3-3.5-0.6-4.8-1.6c-2.5-1.9-3.6-5.4-5.2-8c-0.3-0.4-0.6-0.8-1-1c-1.4-0.6-3.1,0.9-4.4,0.1
	c-1-0.6-0.8-2.1-0.8-3.3c0-1-0.3-1.9-0.8-2.8c-0.2-0.3-0.4-0.6-0.8-0.6c-0.2,0-0.4,0.1-0.5,0.3c-1.1,0.9-1.6,3.1-3.2,2.3
	c-0.7-0.3-1.2-0.9-1.6-1.5c-1-1.3-1.5-3.2-2.4-4.4c-1-1.3-2.3-2.3-3.9-2.6c-0.9-0.2-1.9-0.1-2.7-0.6c-0.5-0.3-0.8-0.7-1.3-1
	c-0.8-0.4-1.7-0.3-2.6-0.2c-3.2,0.5-6.5,1.1-9.4,2.5c-3.7,1.8-6.7,4.8-9.9,7.4c-3.1,2.4-7.2,0.6-10.5,2.4c-0.9,0.5-1.6,1.2-2.3,1.9
	c-2.8,2.5-6.4,4-10.2,4.2c-2.5,0.2-5-0.8-6.2-3.1c-1.5-2.9,0.9-6,0-9c-0.5-1.7-2-3-2.5-4.7c-0.2-0.7-0.2-1.5-0.4-2.3
	C9.7,77.6,7,76,5,74c-0.7-0.7-6-6.6-3.7-7.1c0.1,0,0.3,0,0.4-0.1c0.3-0.2,0.2-0.6,0-0.9c-0.5-1.1-1.3-2.1-1.2-3.3
	c0-0.5,0.2-1,0.4-1.4c0.5-1.7,0.3-3.5-0.1-5.3c-0.2-0.9-0.4-2.7,0.8-3.1C2.8,52.4,3.1,54,4.1,52.5z"/>
</svg>
