<?xml version="1.0" encoding="utf-8"?>
<!-- Generator: Adobe Illustrator 19.0.0, SVG Export Plug-In . SVG Version: 6.00 Build 0)  -->
<svg version="1.1" id="Layer_1" xmlns="http://www.w3.org/2000/svg" xmlns:xlink="http://www.w3.org/1999/xlink" x="0px" y="0px"
	 viewBox="0 0 122.5 61.5" style="enable-background:new 0 0 122.5 61.5;" xml:space="preserve">
<style type="text/css">
	.st0{fill:none;stroke:#FFFFFF;stroke-miterlimit:10;}
</style>
<path class="st0" d="M4.1,5.9C5.3,5.7,6.5,5.8,7.6,6c1.4,0.2,3,0.1,3.7,1.6c0.2,0.5,0.3,1.1,0.3,1.7c0.1,2.1,0.1,4.4-0.2,6.5
	c0,0.3-0.1,0.7-0.3,0.9C11,17,10.6,17.1,10.3,17C10,16.8,10,16.4,10,16c0-0.8,0.2-6.6-0.8-6.3C8.6,9.8,9,18.6,9,19.6
	c0,1.3,0,2.5,0.2,3.8c0.1,1.2-0.1,2.4,0,3.6c0,0.6,0.1,1.3-0.4,1.7c-0.5,0.5-1.4,0.1-1.8-0.4s-0.4-1.3-0.4-2c0-1.7,0-3.4,0-5.1
	c0-0.4,0.3-4.1-0.7-3c-0.4,0.4-0.2,1.7-0.2,2.2c0,1.6,0.1,3.2,0.1,4.8c0,1.1,0,2.3-0.4,3.4c-0.1,0.4-0.4,0.7-0.8,0.7
	c-0.2,0-0.3-0.1-0.5-0.2c-0.9-0.7-0.8-1.9-0.8-3c0.1-2-0.2-4.2-0.2-6.2c0.1-3.2,0.1-6.5,0.2-9.7c0-0.2,0-0.3-0.1-0.4
	c-0.2-0.1-0.4,0.2-0.5,0.4C2.2,12,2.8,14,2.4,15.8c-0.1,0.4-0.2,0.8-0.5,1.1c-0.3,0.3-0.8,0.3-1.1,0c-0.1-0.2-0.2-0.4-0.2-0.7
	c-0.1-2-0.2-4,0-6.1C0.6,8.7,0.9,7,2.4,6.4C2.9,6.1,3.5,6,4.1,5.9z M7.4,0.9C6.7,0.4,5.9,0.4,5.2,0.7C4.6,1,4.1,1.7,4,2.5
	C4,3.2,4.4,4,5,4.4C5.6,4.9,6.4,5,7.2,4.8c0.5-0.2,0.9-0.5,1.1-0.9c0.3-0.6,0-1.4-0.2-2c-0.2-0.5-0.5-1-1-1.1"/>
<path class="st0" d="M4.1,37.6c1.2-0.2,2.4-0.1,3.5,0.1c1.4,0.2,3,0.1,3.7,1.6c0.2,0.5,0.3,1.1,0.3,1.7c0.1,2.1,0.1,4.4-0.2,6.5
	c0,0.3-0.1,0.7-0.3,0.9c-0.2,0.3-0.6,0.4-0.9,0.3c-0.3-0.2-0.4-0.6-0.4-1c0-0.8,0.2-6.6-0.8-6.3C8.6,41.5,9,50.3,9,51.4
	c0,1.3,0,2.5,0.2,3.8c0.1,1.2-0.1,2.4,0,3.6c0,0.6,0.1,1.3-0.4,1.7c-0.5,0.5-1.4,0.1-1.8-0.4s-0.4-1.3-0.4-2c0-1.7,0-3.4,0-5.1
	c0-0.4,0.3-4.1-0.7-3c-0.4,0.4-0.2,1.7-0.2,2.2c0,1.6,0.1,3.2,0.1,4.8c0,1.1,0,2.3-0.4,3.4C5.1,60.6,4.8,61,4.5,61
	c-0.2,0-0.3-0.1-0.5-0.2c-0.9-0.7-0.8-1.9-0.8-3c0.1-2-0.2-4.2-0.2-6.2c0.1-3.2,0.1-6.5,0.2-9.7c0-0.2,0-0.3-0.1-0.4
	c-0.2-0.1-0.4,0.2-0.5,0.4c-0.4,1.8,0.2,3.8-0.2,5.6c-0.1,0.4-0.2,0.8-0.5,1.1c-0.3,0.3-0.8,0.3-1.1,0c-0.1-0.2-0.2-0.4-0.2-0.7
	c-0.1-2-0.2-4,0-6.1c0.1-1.5,0.3-3.1,1.8-3.8C2.9,37.8,3.5,37.7,4.1,37.6z M7.4,32.6c-0.6-0.4-1.5-0.5-2.1-0.2
	c-0.7,0.3-1.1,1-1.2,1.8c-0.1,0.8,0.3,1.5,1,2c0.6,0.4,1.5,0.5,2.2,0.3c0.5-0.2,0.9-0.5,1.1-0.9c0.3-0.6,0-1.4-0.2-2
	c-0.2-0.5-0.5-1-1-1.1"/>
<path class="st0" d="M45.5,5.9C46.6,5.7,47.9,5.8,49,6c1.4,0.2,3,0.1,3.7,1.6C52.9,8.1,53,8.7,53,9.3c0.1,2.1,0.1,4.4-0.2,6.5
	c0,0.3-0.1,0.7-0.3,0.9C52.4,17,52,17.1,51.7,17c-0.3-0.2-0.4-0.6-0.4-1c0-0.8,0.2-6.6-0.8-6.3c-0.6,0.1-0.2,8.9-0.3,10
	c0,1.3,0,2.5,0.2,3.8c0.1,1.2-0.1,2.4,0,3.6c0,0.6,0.1,1.3-0.4,1.7c-0.5,0.5-1.4,0.1-1.8-0.4s-0.4-1.3-0.4-2c0-1.7,0-3.4,0-5.1
	c0-0.4,0.3-4.1-0.7-3c-0.4,0.4-0.2,1.7-0.2,2.2c0,1.6,0.1,3.2,0.1,4.8c0,1.1,0,2.3-0.4,3.4c-0.1,0.4-0.4,0.7-0.8,0.7
	c-0.2,0-0.3-0.1-0.5-0.2c-0.9-0.7-0.8-1.9-0.8-3c0.1-2-0.2-4.2-0.2-6.2c0.1-3.2,0.1-6.5,0.2-9.7c0-0.2,0-0.3-0.1-0.4
	c-0.2-0.1-0.4,0.2-0.5,0.4c-0.4,1.8,0.2,3.8-0.2,5.6c-0.1,0.4-0.2,0.8-0.5,1.1c-0.3,0.3-0.8,0.3-1.1,0C42,16.7,42,16.4,42,16.2
	c-0.1-2-0.2-4,0-6.1C42,8.7,42.3,7,43.7,6.4C44.3,6.1,44.9,6,45.5,5.9z M48.7,0.9c-0.6-0.4-1.5-0.5-2.1-0.2c-0.7,0.3-1.1,1-1.2,1.8
	c-0.1,0.8,0.3,1.5,1,2C47,4.9,47.8,5,48.5,4.8c0.5-0.2,0.9-0.5,1.1-0.9c0.3-0.6,0-1.4-0.2-2c-0.2-0.5-0.5-1-1-1.1"/>
<path class="st0" d="M45.5,37.6c1.2-0.2,2.4-0.1,3.5,0.1c1.4,0.2,3,0.1,3.7,1.6c0.2,0.5,0.3,1.1,0.3,1.7c0.1,2.1,0.1,4.4-0.2,6.5
	c0,0.3-0.1,0.7-0.3,0.9c-0.2,0.3-0.6,0.4-0.9,0.3c-0.3-0.2-0.4-0.6-0.4-1c0-0.8,0.2-6.6-0.8-6.3c-0.6,0.1-0.2,8.9-0.3,10
	c0,1.3,0,2.5,0.2,3.8c0.1,1.2-0.1,2.4,0,3.6c0,0.6,0.1,1.3-0.4,1.7c-0.5,0.5-1.4,0.1-1.8-0.4s-0.4-1.3-0.4-2c0-1.7,0-3.4,0-5.1
	c0-0.4,0.3-4.1-0.7-3c-0.4,0.4-0.2,1.7-0.2,2.2c0,1.6,0.1,3.2,0.1,4.8c0,1.1,0,2.3-0.4,3.4c-0.1,0.4-0.4,0.7-0.8,0.7
	c-0.2,0-0.3-0.1-0.5-0.2c-0.9-0.7-0.8-1.9-0.8-3c0.1-2-0.2-4.2-0.2-6.2c0.1-3.2,0.1-6.5,0.2-9.7c0-0.2,0-0.3-0.1-0.4
	c-0.2-0.1-0.4,0.2-0.5,0.4c-0.4,1.8,0.2,3.8-0.2,5.6c-0.1,0.4-0.2,0.8-0.5,1.1c-0.3,0.3-0.8,0.3-1.1,0C42,48.4,42,48.1,42,47.9
	c-0.1-2-0.2-4,0-6.1c0.1-1.5,0.3-3.1,1.8-3.8C44.3,37.8,44.9,37.7,45.5,37.6z M48.7,32.6c-0.6-0.4-1.5-0.5-2.1-0.2
	c-0.7,0.3-1.1,1-1.2,1.8c-0.1,0.8,0.3,1.5,1,2c0.6,0.4,1.5,0.5,2.2,0.3c0.5-0.2,0.9-0.5,1.1-0.9c0.3-0.6,0-1.4-0.2-2
	c-0.2-0.5-0.5-1-1-1.1"/>
<path class="st0" d="M86.8,5.9C88,5.7,89.2,5.8,90.3,6c1.4,0.2,3,0.1,3.7,1.6c0.2,0.5,0.3,1.1,0.3,1.7c0.1,2.1,0.1,4.4-0.2,6.5
	c0,0.3-0.1,0.7-0.3,0.9C93.7,17,93.3,17.1,93,17c-0.3-0.2-0.4-0.6-0.4-1c0-0.8,0.2-6.6-0.8-6.3c-0.6,0.1-0.2,8.9-0.3,10
	c0,1.3,0,2.5,0.2,3.8c0.1,1.2-0.1,2.4,0,3.6c0,0.6,0.1,1.3-0.4,1.7c-0.5,0.5-1.4,0.1-1.8-0.4s-0.4-1.3-0.4-2c0-1.7,0-3.4,0-5.1
	c0-0.4,0.3-4.1-0.7-3c-0.4,0.4-0.2,1.7-0.2,2.2c0,1.6,0.1,3.2,0.1,4.8c0,1.1,0,2.3-0.4,3.4c-0.1,0.4-0.4,0.7-0.8,0.7
	c-0.2,0-0.3-0.1-0.5-0.2c-0.9-0.7-0.8-1.9-0.8-3c0.1-2-0.2-4.2-0.2-6.2c0.1-3.2,0.1-6.5,0.2-9.7c0-0.2,0-0.3-0.1-0.4
	c-0.2-0.1-0.4,0.2-0.5,0.4c-0.4,1.8,0.2,3.8-0.2,5.6c-0.1,0.4-0.2,0.8-0.5,1.1c-0.3,0.3-0.8,0.3-1.1,0c-0.1-0.2-0.2-0.4-0.2-0.7
	c-0.1-2-0.2-4,0-6.1c0.1-1.5,0.3-3.1,1.8-3.8C85.6,6.1,86.2,6,86.8,5.9z M90.1,0.9c-0.6-0.4-1.5-0.5-2.1-0.2c-0.7,0.3-1.1,1-1.2,1.8
	c-0.1,0.8,0.3,1.5,1,2c0.6,0.4,1.5,0.5,2.2,0.3c0.5-0.2,0.9-0.5,1.1-0.9c0.3-0.6,0-1.4-0.2-2c-0.2-0.5-0.5-1-1-1.1"/>
<path class="st0" d="M86.8,37.6c1.2-0.2,2.4-0.1,3.5,0.1c1.4,0.2,3,0.1,3.7,1.6c0.2,0.5,0.3,1.1,0.3,1.7c0.1,2.1,0.1,4.4-0.2,6.5
	c0,0.3-0.1,0.7-0.3,0.9c-0.2,0.3-0.6,0.4-0.9,0.3c-0.3-0.2-0.4-0.6-0.4-1c0-0.8,0.2-6.6-0.8-6.3c-0.6,0.1-0.2,8.9-0.3,10
	c0,1.3,0,2.5,0.2,3.8c0.1,1.2-0.1,2.4,0,3.6c0,0.6,0.1,1.3-0.4,1.7c-0.5,0.5-1.4,0.1-1.8-0.4s-0.4-1.3-0.4-2c0-1.7,0-3.4,0-5.1
	c0-0.4,0.3-4.1-0.7-3c-0.4,0.4-0.2,1.7-0.2,2.2c0,1.6,0.1,3.2,0.1,4.8c0,1.1,0,2.3-0.4,3.4c-0.1,0.4-0.4,0.7-0.8,0.7
	c-0.2,0-0.3-0.1-0.5-0.2c-0.9-0.7-0.8-1.9-0.8-3c0.1-2-0.2-4.2-0.2-6.2c0.1-3.2,0.1-6.5,0.2-9.7c0-0.2,0-0.3-0.1-0.4
	c-0.2-0.1-0.4,0.2-0.5,0.4c-0.4,1.8,0.2,3.8-0.2,5.6c-0.1,0.4-0.2,0.8-0.5,1.1c-0.3,0.3-0.8,0.3-1.1,0c-0.1-0.2-0.2-0.4-0.2-0.7
	c-0.1-2-0.2-4,0-6.1c0.1-1.5,0.3-3.1,1.8-3.8C85.6,37.8,86.2,37.7,86.8,37.6z M90.1,32.6c-0.6-0.4-1.5-0.5-2.1-0.2
	c-0.7,0.3-1.1,1-1.2,1.8c-0.1,0.8,0.3,1.5,1,2c0.6,0.4,1.5,0.5,2.2,0.3c0.5-0.2,0.9-0.5,1.1-0.9c0.3-0.6,0-1.4-0.2-2
	c-0.2-0.5-0.5-1-1-1.1"/>
<path class="st0" d="M17.9,5.9c1.2-0.2,2.4-0.1,3.5,0.1c1.4,0.2,3,0.1,3.7,1.6c0.2,0.5,0.3,1.1,0.3,1.7c0.1,2.1,0.1,4.4-0.2,6.5
	c0,0.3-0.1,0.7-0.3,0.9c-0.2,0.3-0.6,0.4-0.9,0.3c-0.3-0.2-0.4-0.6-0.4-1c0-0.8,0.2-6.6-0.8-6.3c-0.6,0.1-0.2,8.9-0.3,10
	c0,1.3,0,2.5,0.2,3.8c0.1,1.2-0.1,2.4,0,3.6c0,0.6,0.1,1.3-0.4,1.7c-0.5,0.5-1.4,0.1-1.8-0.4s-0.4-1.3-0.4-2c0-1.7,0-3.4,0-5.1
	c0-0.4,0.3-4.1-0.7-3c-0.4,0.4-0.2,1.7-0.2,2.2c0,1.6,0.1,3.2,0.1,4.8c0,1.1,0,2.3-0.4,3.4c-0.1,0.4-0.4,0.7-0.8,0.7
	c-0.2,0-0.3-0.1-0.5-0.2c-0.9-0.7-0.8-1.9-0.8-3c0.1-2-0.2-4.2-0.2-6.2c0.1-3.2,0.1-6.5,0.2-9.7c0-0.2,0-0.3-0.1-0.4
	c-0.2-0.1-0.4,0.2-0.5,0.4c-0.4,1.8,0.2,3.8-0.2,5.6c-0.1,0.4-0.2,0.8-0.5,1.1c-0.3,0.3-0.8,0.3-1.1,0c-0.1-0.2-0.2-0.4-0.2-0.7
	c-0.1-2-0.2-4,0-6.1c0.1-1.5,0.3-3.1,1.8-3.8C16.7,6.1,17.3,6,17.9,5.9z M21.1,0.9c-0.6-0.4-1.5-0.5-2.1-0.2c-0.7,0.3-1.1,1-1.2,1.8
	c-0.1,0.8,0.3,1.5,1,2C19.4,4.9,20.2,5,21,4.8c0.5-0.2,0.9-0.5,1.1-0.9c0.3-0.6,0-1.4-0.2-2c-0.2-0.5-0.5-1-1-1.1"/>
<path class="st0" d="M17.9,37.6c1.2-0.2,2.4-0.1,3.5,0.1c1.4,0.2,3,0.1,3.7,1.6c0.2,0.5,0.3,1.1,0.3,1.7c0.1,2.1,0.1,4.4-0.2,6.5
	c0,0.3-0.1,0.7-0.3,0.9c-0.2,0.3-0.6,0.4-0.9,0.3c-0.3-0.2-0.4-0.6-0.4-1c0-0.8,0.2-6.6-0.8-6.3c-0.6,0.1-0.2,8.9-0.3,10
	c0,1.3,0,2.5,0.2,3.8c0.1,1.2-0.1,2.4,0,3.6c0,0.6,0.1,1.3-0.4,1.7c-0.5,0.5-1.4,0.1-1.8-0.4s-0.4-1.3-0.4-2c0-1.7,0-3.4,0-5.1
	c0-0.4,0.3-4.1-0.7-3c-0.4,0.4-0.2,1.7-0.2,2.2c0,1.6,0.1,3.2,0.1,4.8c0,1.1,0,2.3-0.4,3.4c-0.1,0.4-0.4,0.7-0.8,0.7
	c-0.2,0-0.3-0.1-0.5-0.2c-0.9-0.7-0.8-1.9-0.8-3c0.1-2-0.2-4.2-0.2-6.2c0.1-3.2,0.1-6.5,0.2-9.7c0-0.2,0-0.3-0.1-0.4
	c-0.2-0.1-0.4,0.2-0.5,0.4c-0.4,1.8,0.2,3.8-0.2,5.6c-0.1,0.4-0.2,0.8-0.5,1.1c-0.3,0.3-0.8,0.3-1.1,0c-0.1-0.2-0.2-0.4-0.2-0.7
	c-0.1-2-0.2-4,0-6.1c0.1-1.5,0.3-3.1,1.8-3.8C16.7,37.8,17.3,37.7,17.9,37.6z M21.1,32.6c-0.6-0.4-1.5-0.5-2.1-0.2
	c-0.7,0.3-1.1,1-1.2,1.8c-0.1,0.8,0.3,1.5,1,2c0.6,0.4,1.5,0.5,2.2,0.3c0.5-0.2,0.9-0.5,1.1-0.9c0.3-0.6,0-1.4-0.2-2
	c-0.2-0.5-0.5-1-1-1.1"/>
<path class="st0" d="M59.2,5.9c1.2-0.2,2.4-0.1,3.5,0.1c1.4,0.2,3,0.1,3.7,1.6c0.2,0.5,0.3,1.1,0.3,1.7c0.1,2.1,0.1,4.4-0.2,6.5
	c0,0.3-0.1,0.7-0.3,0.9c-0.2,0.3-0.6,0.4-0.9,0.3c-0.3-0.2-0.4-0.6-0.4-1c0-0.8,0.2-6.6-0.8-6.3c-0.6,0.1-0.2,8.9-0.3,10
	c0,1.3,0,2.5,0.2,3.8c0.1,1.2-0.1,2.4,0,3.6c0,0.6,0.1,1.3-0.4,1.7c-0.5,0.5-1.4,0.1-1.8-0.4s-0.4-1.3-0.4-2c0-1.7,0-3.4,0-5.1
	c0-0.4,0.3-4.1-0.7-3c-0.4,0.4-0.2,1.7-0.2,2.2c0,1.6,0.1,3.2,0.1,4.8c0,1.1,0,2.3-0.4,3.4c-0.1,0.4-0.4,0.7-0.8,0.7
	c-0.2,0-0.3-0.1-0.5-0.2c-0.9-0.7-0.8-1.9-0.8-3c0.1-2-0.2-4.2-0.2-6.2c0.1-3.2,0.1-6.5,0.2-9.7c0-0.2,0-0.3-0.1-0.4
	c-0.2-0.1-0.4,0.2-0.5,0.4c-0.4,1.8,0.2,3.8-0.2,5.6c-0.1,0.4-0.2,0.8-0.5,1.1c-0.3,0.3-0.8,0.3-1.1,0c-0.1-0.2-0.2-0.4-0.2-0.7
	c-0.1-2-0.2-4,0-6.1C55.8,8.7,56,7,57.5,6.4C58.1,6.1,58.6,6,59.2,5.9z M62.5,0.9c-0.6-0.4-1.5-0.5-2.1-0.2c-0.7,0.3-1.1,1-1.2,1.8
	c-0.1,0.8,0.3,1.5,1,2c0.6,0.4,1.5,0.5,2.2,0.3c0.5-0.2,0.9-0.5,1.1-0.9c0.3-0.6,0-1.4-0.2-2c-0.2-0.5-0.5-1-1-1.1"/>
<path class="st0" d="M59.2,37.6c1.2-0.2,2.4-0.1,3.5,0.1c1.4,0.2,3,0.1,3.7,1.6c0.2,0.5,0.3,1.1,0.3,1.7c0.1,2.1,0.1,4.4-0.2,6.5
	c0,0.3-0.1,0.7-0.3,0.9c-0.2,0.3-0.6,0.4-0.9,0.3c-0.3-0.2-0.4-0.6-0.4-1c0-0.8,0.2-6.6-0.8-6.3c-0.6,0.1-0.2,8.9-0.3,10
	c0,1.3,0,2.5,0.2,3.8c0.1,1.2-0.1,2.4,0,3.6c0,0.6,0.1,1.3-0.4,1.7c-0.5,0.5-1.4,0.1-1.8-0.4s-0.4-1.3-0.4-2c0-1.7,0-3.4,0-5.1
	c0-0.4,0.3-4.1-0.7-3c-0.4,0.4-0.2,1.7-0.2,2.2c0,1.6,0.1,3.2,0.1,4.8c0,1.1,0,2.3-0.4,3.4C60.2,60.6,60,61,59.6,61
	c-0.2,0-0.3-0.1-0.5-0.2c-0.9-0.7-0.8-1.9-0.8-3c0.1-2-0.2-4.2-0.2-6.2c0.1-3.2,0.1-6.5,0.2-9.7c0-0.2,0-0.3-0.1-0.4
	c-0.2-0.1-0.4,0.2-0.5,0.4c-0.4,1.8,0.2,3.8-0.2,5.6c-0.1,0.4-0.2,0.8-0.5,1.1c-0.3,0.3-0.8,0.3-1.1,0c-0.1-0.2-0.2-0.4-0.2-0.7
	c-0.1-2-0.2-4,0-6.1c0.1-1.5,0.3-3.1,1.8-3.8C58.1,37.8,58.6,37.7,59.2,37.6z M62.5,32.6c-0.6-0.4-1.5-0.5-2.1-0.2
	c-0.7,0.3-1.1,1-1.2,1.8c-0.1,0.8,0.3,1.5,1,2c0.6,0.4,1.5,0.5,2.2,0.3c0.5-0.2,0.9-0.5,1.1-0.9c0.3-0.6,0-1.4-0.2-2
	c-0.2-0.5-0.5-1-1-1.1"/>
<path class="st0" d="M100.6,5.9c1.2-0.2,2.4-0.1,3.5,0.1c1.4,0.2,3,0.1,3.7,1.6c0.2,0.5,0.3,1.1,0.3,1.7c0.1,2.1,0.1,4.4-0.2,6.5
	c0,0.3-0.1,0.7-0.3,0.9c-0.2,0.3-0.6,0.4-0.9,0.3c-0.3-0.2-0.4-0.6-0.4-1c0-0.8,0.2-6.6-0.8-6.3c-0.6,0.1-0.2,8.9-0.3,10
	c0,1.3,0,2.5,0.2,3.8c0.1,1.2-0.1,2.4,0,3.6c0,0.6,0.1,1.3-0.4,1.7c-0.5,0.5-1.4,0.1-1.8-0.4s-0.4-1.3-0.4-2c0-1.7,0-3.4,0-5.1
	c0-0.4,0.3-4.1-0.7-3c-0.4,0.4-0.2,1.7-0.2,2.2c0,1.6,0.1,3.2,0.1,4.8c0,1.1,0,2.3-0.4,3.4c-0.1,0.4-0.4,0.7-0.8,0.7
	c-0.2,0-0.3-0.1-0.5-0.2c-0.9-0.7-0.8-1.9-0.8-3c0.1-2-0.2-4.2-0.2-6.2c0.1-3.2,0.1-6.5,0.2-9.7c0-0.2,0-0.3-0.1-0.4
	c-0.2-0.1-0.4,0.2-0.5,0.4c-0.4,1.8,0.2,3.8-0.2,5.6c-0.1,0.4-0.2,0.8-0.5,1.1c-0.3,0.3-0.8,0.3-1.1,0c-0.1-0.2-0.2-0.4-0.2-0.7
	c-0.1-2-0.2-4,0-6.1c0.1-1.5,0.3-3.1,1.8-3.8C99.4,6.1,100,6,100.6,5.9z M103.8,0.9c-0.6-0.4-1.5-0.5-2.1-0.2
	c-0.7,0.3-1.1,1-1.2,1.8c-0.1,0.8,0.3,1.5,1,2c0.6,0.4,1.5,0.5,2.2,0.3c0.5-0.2,0.9-0.5,1.1-0.9c0.3-0.6,0-1.4-0.2-2
	c-0.2-0.5-0.5-1-1-1.1"/>
<path class="st0" d="M100.6,37.6c1.2-0.2,2.4-0.1,3.5,0.1c1.4,0.2,3,0.1,3.7,1.6c0.2,0.5,0.3,1.1,0.3,1.7c0.1,2.1,0.1,4.4-0.2,6.5
	c0,0.3-0.1,0.7-0.3,0.9c-0.2,0.3-0.6,0.4-0.9,0.3c-0.3-0.2-0.4-0.6-0.4-1c0-0.8,0.2-6.6-0.8-6.3c-0.6,0.1-0.2,8.9-0.3,10
	c0,1.3,0,2.5,0.2,3.8c0.1,1.2-0.1,2.4,0,3.6c0,0.6,0.1,1.3-0.4,1.7c-0.5,0.5-1.4,0.1-1.8-0.4s-0.4-1.3-0.4-2c0-1.7,0-3.4,0-5.1
	c0-0.4,0.3-4.1-0.7-3c-0.4,0.4-0.2,1.7-0.2,2.2c0,1.6,0.1,3.2,0.1,4.8c0,1.1,0,2.3-0.4,3.4c-0.1,0.4-0.4,0.7-0.8,0.7
	c-0.2,0-0.3-0.1-0.5-0.2c-0.9-0.7-0.8-1.9-0.8-3c0.1-2-0.2-4.2-0.2-6.2c0.1-3.2,0.1-6.5,0.2-9.7c0-0.2,0-0.3-0.1-0.4
	c-0.2-0.1-0.4,0.2-0.5,0.4c-0.4,1.8,0.2,3.8-0.2,5.6c-0.1,0.4-0.2,0.8-0.5,1.1c-0.3,0.3-0.8,0.3-1.1,0c-0.1-0.2-0.2-0.4-0.2-0.7
	c-0.1-2-0.2-4,0-6.1c0.1-1.5,0.3-3.1,1.8-3.8C99.4,37.8,100,37.7,100.6,37.6z M103.8,32.6c-0.6-0.4-1.5-0.5-2.1-0.2
	c-0.7,0.3-1.1,1-1.2,1.8c-0.1,0.8,0.3,1.5,1,2c0.6,0.4,1.5,0.5,2.2,0.3c0.5-0.2,0.9-0.5,1.1-0.9c0.3-0.6,0-1.4-0.2-2
	c-0.2-0.5-0.5-1-1-1.1"/>
<path class="st0" d="M31.7,5.9c1.2-0.2,2.4-0.1,3.5,0.1c1.4,0.2,3,0.1,3.7,1.6c0.2,0.5,0.3,1.1,0.3,1.7c0.1,2.1,0.1,4.4-0.2,6.5
	c0,0.3-0.1,0.7-0.3,0.9c-0.2,0.3-0.6,0.4-0.9,0.3c-0.3-0.2-0.4-0.6-0.4-1c0-0.8,0.2-6.6-0.8-6.3c-0.6,0.1-0.2,8.9-0.3,10
	c0,1.3,0,2.5,0.2,3.8c0.1,1.2-0.1,2.4,0,3.6c0,0.6,0.1,1.3-0.4,1.7c-0.5,0.5-1.4,0.1-1.8-0.4S34,27,34,26.3c0-1.7,0-3.4,0-5.1
	c0-0.4,0.3-4.1-0.7-3c-0.4,0.4-0.2,1.7-0.2,2.2c0,1.6,0.1,3.2,0.1,4.8c0,1.1,0,2.3-0.4,3.4c-0.1,0.4-0.4,0.7-0.8,0.7
	c-0.2,0-0.3-0.1-0.5-0.2c-0.9-0.7-0.8-1.9-0.8-3c0.1-2-0.2-4.2-0.2-6.2c0.1-3.2,0.1-6.5,0.2-9.7c0-0.2,0-0.3-0.1-0.4
	c-0.2-0.1-0.4,0.2-0.5,0.4C29.7,12,30.3,14,30,15.8c-0.1,0.4-0.2,0.8-0.5,1.1c-0.3,0.3-0.8,0.3-1.1,0c-0.1-0.2-0.2-0.4-0.2-0.7
	c-0.1-2-0.2-4,0-6.1c0.1-1.5,0.3-3.1,1.8-3.8C30.5,6.1,31.1,6,31.7,5.9z M34.9,0.9c-0.6-0.4-1.5-0.5-2.1-0.2c-0.7,0.3-1.1,1-1.2,1.8
	c-0.1,0.8,0.3,1.5,1,2C33.2,4.9,34,5,34.7,4.8c0.5-0.2,0.9-0.5,1.1-0.9c0.3-0.6,0-1.4-0.2-2c-0.2-0.5-0.5-1-1-1.1"/>
<path class="st0" d="M31.7,37.6c1.2-0.2,2.4-0.1,3.5,0.1c1.4,0.2,3,0.1,3.7,1.6c0.2,0.5,0.3,1.1,0.3,1.7c0.1,2.1,0.1,4.4-0.2,6.5
	c0,0.3-0.1,0.7-0.3,0.9c-0.2,0.3-0.6,0.4-0.9,0.3c-0.3-0.2-0.4-0.6-0.4-1c0-0.8,0.2-6.6-0.8-6.3c-0.6,0.1-0.2,8.9-0.3,10
	c0,1.3,0,2.5,0.2,3.8c0.1,1.2-0.1,2.4,0,3.6c0,0.6,0.1,1.3-0.4,1.7c-0.5,0.5-1.4,0.1-1.8-0.4S34,58.7,34,58c0-1.7,0-3.4,0-5.1
	c0-0.4,0.3-4.1-0.7-3c-0.4,0.4-0.2,1.7-0.2,2.2c0,1.6,0.1,3.2,0.1,4.8c0,1.1,0,2.3-0.4,3.4C32.7,60.6,32.4,61,32,61
	c-0.2,0-0.3-0.1-0.5-0.2c-0.9-0.7-0.8-1.9-0.8-3c0.1-2-0.2-4.2-0.2-6.2c0.1-3.2,0.1-6.5,0.2-9.7c0-0.2,0-0.3-0.1-0.4
	c-0.2-0.1-0.4,0.2-0.5,0.4c-0.4,1.8,0.2,3.8-0.2,5.6c-0.1,0.4-0.2,0.8-0.5,1.1c-0.3,0.3-0.8,0.3-1.1,0c-0.1-0.2-0.2-0.4-0.2-0.7
	c-0.1-2-0.2-4,0-6.1c0.1-1.5,0.3-3.1,1.8-3.8C30.5,37.8,31.1,37.7,31.7,37.6z M34.9,32.6c-0.6-0.4-1.5-0.5-2.1-0.2
	c-0.7,0.3-1.1,1-1.2,1.8c-0.1,0.8,0.3,1.5,1,2c0.6,0.4,1.5,0.5,2.2,0.3c0.5-0.2,0.9-0.5,1.1-0.9c0.3-0.6,0-1.4-0.2-2
	c-0.2-0.5-0.5-1-1-1.1"/>
<path class="st0" d="M73,5.9c1.2-0.2,2.4-0.1,3.5,0.1c1.4,0.2,3,0.1,3.7,1.6c0.2,0.5,0.3,1.1,0.3,1.7c0.1,2.1,0.1,4.4-0.2,6.5
	c0,0.3-0.1,0.7-0.3,0.9c-0.2,0.3-0.6,0.4-0.9,0.3c-0.3-0.2-0.4-0.6-0.4-1c0-0.8,0.2-6.6-0.8-6.3c-0.6,0.1-0.2,8.9-0.3,10
	c0,1.3,0,2.5,0.2,3.8c0.1,1.2-0.1,2.4,0,3.6c0,0.6,0.1,1.3-0.4,1.7c-0.5,0.5-1.4,0.1-1.8-0.4s-0.4-1.3-0.4-2c0-1.7,0-3.4,0-5.1
	c0-0.4,0.3-4.1-0.7-3c-0.4,0.4-0.2,1.7-0.2,2.2c0,1.6,0.1,3.2,0.1,4.8c0,1.1,0,2.3-0.4,3.4c-0.1,0.4-0.4,0.7-0.8,0.7
	c-0.2,0-0.3-0.1-0.5-0.2c-0.9-0.7-0.8-1.9-0.8-3c0.1-2-0.2-4.2-0.2-6.2c0.1-3.2,0.1-6.5,0.2-9.7c0-0.2,0-0.3-0.1-0.4
	c-0.2-0.1-0.4,0.2-0.5,0.4c-0.4,1.8,0.2,3.8-0.2,5.6c-0.1,0.4-0.2,0.8-0.5,1.1c-0.3,0.3-0.8,0.3-1.1,0c-0.1-0.2-0.2-0.4-0.2-0.7
	c-0.1-2-0.2-4,0-6.1c0.1-1.5,0.3-3.1,1.8-3.8C71.8,6.1,72.4,6,73,5.9z M76.3,0.9c-0.6-0.4-1.5-0.5-2.1-0.2c-0.7,0.3-1.1,1-1.2,1.8
	c-0.1,0.8,0.3,1.5,1,2c0.6,0.4,1.5,0.5,2.2,0.3c0.5-0.2,0.9-0.5,1.1-0.9c0.3-0.6,0-1.4-0.2-2c-0.2-0.5-0.5-1-1-1.1"/>
<path class="st0" d="M73,37.6c1.2-0.2,2.4-0.1,3.5,0.1c1.4,0.2,3,0.1,3.7,1.6c0.2,0.5,0.3,1.1,0.3,1.7c0.1,2.1,0.1,4.4-0.2,6.5
	c0,0.3-0.1,0.7-0.3,0.9c-0.2,0.3-0.6,0.4-0.9,0.3c-0.3-0.2-0.4-0.6-0.4-1c0-0.8,0.2-6.6-0.8-6.3c-0.6,0.1-0.2,8.9-0.3,10
	c0,1.3,0,2.5,0.2,3.8c0.1,1.2-0.1,2.4,0,3.6c0,0.6,0.1,1.3-0.4,1.7c-0.5,0.5-1.4,0.1-1.8-0.4s-0.4-1.3-0.4-2c0-1.7,0-3.4,0-5.1
	c0-0.4,0.3-4.1-0.7-3c-0.4,0.4-0.2,1.7-0.2,2.2c0,1.6,0.1,3.2,0.1,4.8c0,1.1,0,2.3-0.4,3.4C74,60.6,73.7,61,73.4,61
	c-0.2,0-0.3-0.1-0.5-0.2c-0.9-0.7-0.8-1.9-0.8-3c0.1-2-0.2-4.2-0.2-6.2c0.1-3.2,0.1-6.5,0.2-9.7c0-0.2,0-0.3-0.1-0.4
	c-0.2-0.1-0.4,0.2-0.5,0.4c-0.4,1.8,0.2,3.8-0.2,5.6c-0.1,0.4-0.2,0.8-0.5,1.1c-0.3,0.3-0.8,0.3-1.1,0c-0.1-0.2-0.2-0.4-0.2-0.7
	c-0.1-2-0.2-4,0-6.1c0.1-1.5,0.3-3.1,1.8-3.8C71.8,37.8,72.4,37.7,73,37.6z M76.3,32.6c-0.6-0.4-1.5-0.5-2.1-0.2
	c-0.7,0.3-1.1,1-1.2,1.8c-0.1,0.8,0.3,1.5,1,2c0.6,0.4,1.5,0.5,2.2,0.3c0.5-0.2,0.9-0.5,1.1-0.9c0.3-0.6,0-1.4-0.2-2
	c-0.2-0.5-0.5-1-1-1.1"/>
<path class="st0" d="M114.4,5.9c1.2-0.2,2.4-0.1,3.5,0.1c1.4,0.2,3,0.1,3.7,1.6c0.2,0.5,0.3,1.1,0.3,1.7c0.1,2.1,0.1,4.4-0.2,6.5
	c0,0.3-0.1,0.7-0.3,0.9c-0.2,0.3-0.6,0.4-0.9,0.3c-0.3-0.2-0.4-0.6-0.4-1c0-0.8,0.2-6.6-0.8-6.3c-0.6,0.1-0.2,8.9-0.3,10
	c0,1.3,0,2.5,0.2,3.8c0.1,1.2-0.1,2.4,0,3.6c0,0.6,0.1,1.3-0.4,1.7c-0.5,0.5-1.4,0.1-1.8-0.4s-0.4-1.3-0.4-2c0-1.7,0-3.4,0-5.1
	c0-0.4,0.3-4.1-0.7-3c-0.4,0.4-0.2,1.7-0.2,2.2c0,1.6,0.1,3.2,0.1,4.8c0,1.1,0,2.3-0.4,3.4c-0.1,0.4-0.4,0.7-0.8,0.7
	c-0.2,0-0.3-0.1-0.5-0.2c-0.9-0.7-0.8-1.9-0.8-3c0.1-2-0.2-4.2-0.2-6.2c0.1-3.2,0.1-6.5,0.2-9.7c0-0.2,0-0.3-0.1-0.4
	c-0.2-0.1-0.4,0.2-0.5,0.4c-0.4,1.8,0.2,3.8-0.2,5.6c-0.1,0.4-0.2,0.8-0.5,1.1c-0.3,0.3-0.8,0.3-1.1,0c-0.1-0.2-0.2-0.4-0.2-0.7
	c-0.1-2-0.2-4,0-6.1c0.1-1.5,0.3-3.1,1.8-3.8C113.2,6.1,113.8,6,114.4,5.9z M117.6,0.9c-0.6-0.4-1.5-0.5-2.1-0.2
	c-0.7,0.3-1.1,1-1.2,1.8c-0.1,0.8,0.3,1.5,1,2c0.6,0.4,1.5,0.5,2.2,0.3c0.5-0.2,0.9-0.5,1.1-0.9c0.3-0.6,0-1.4-0.2-2
	c-0.2-0.5-0.5-1-1-1.1"/>
<path class="st0" d="M114.4,37.6c1.2-0.2,2.4-0.1,3.5,0.1c1.4,0.2,3,0.1,3.7,1.6c0.2,0.5,0.3,1.1,0.3,1.7c0.1,2.1,0.1,4.4-0.2,6.5
	c0,0.3-0.1,0.7-0.3,0.9c-0.2,0.3-0.6,0.4-0.9,0.3c-0.3-0.2-0.4-0.6-0.4-1c0-0.8,0.2-6.6-0.8-6.3c-0.6,0.1-0.2,8.9-0.3,10
	c0,1.3,0,2.5,0.2,3.8c0.1,1.2-0.1,2.4,0,3.6c0,0.6,0.1,1.3-0.4,1.7c-0.5,0.5-1.4,0.1-1.8-0.4s-0.4-1.3-0.4-2c0-1.7,0-3.4,0-5.1
	c0-0.4,0.3-4.1-0.7-3c-0.4,0.4-0.2,1.7-0.2,2.2c0,1.6,0.1,3.2,0.1,4.8c0,1.1,0,2.3-0.4,3.4c-0.1,0.4-0.4,0.7-0.8,0.7
	c-0.2,0-0.3-0.1-0.5-0.2c-0.9-0.7-0.8-1.9-0.8-3c0.1-2-0.2-4.2-0.2-6.2c0.1-3.2,0.1-6.5,0.2-9.7c0-0.2,0-0.3-0.1-0.4
	c-0.2-0.1-0.4,0.2-0.5,0.4c-0.4,1.8,0.2,3.8-0.2,5.6c-0.1,0.4-0.2,0.8-0.5,1.1c-0.3,0.3-0.8,0.3-1.1,0c-0.1-0.2-0.2-0.4-0.2-0.7
	c-0.1-2-0.2-4,0-6.1c0.1-1.5,0.3-3.1,1.8-3.8C113.2,37.8,113.8,37.7,114.4,37.6z M117.6,32.6c-0.6-0.4-1.5-0.5-2.1-0.2
	c-0.7,0.3-1.1,1-1.2,1.8c-0.1,0.8,0.3,1.5,1,2c0.6,0.4,1.5,0.5,2.2,0.3c0.5-0.2,0.9-0.5,1.1-0.9c0.3-0.6,0-1.4-0.2-2
	c-0.2-0.5-0.5-1-1-1.1"/>
</svg>
