<?xml version="1.0" encoding="utf-8"?>
<!-- Generator: Adobe Illustrator 19.0.0, SVG Export Plug-In . SVG Version: 6.00 Build 0)  -->
<svg version="1.1" id="Layer_1" xmlns="http://www.w3.org/2000/svg" xmlns:xlink="http://www.w3.org/1999/xlink" x="0px" y="0px"
	 viewBox="0 0 77.8 83.1" style="enable-background:new 0 0 77.8 83.1;" xml:space="preserve">
<style type="text/css">
	.st0{fill:#FFFFFF;}
</style>
<path class="st0" d="M66,9.7c-2.5-2.1-5-4.4-7.7-6.3c-2.2-1.6-4.8-3.5-7.7-3.4c-2.9,0.1-5,2.4-6.8,4.5c-3.8,4.6-7.6,9.2-11.5,13.8
	C22.5,30.2,12.6,42.1,2.7,54C1.5,55.5-0.1,57,0,59c0.1,2.7,1.3,4.4,3.3,6c3.4,2.9,6.7,5.8,10.1,8.7c0.4,0.3,0.8-0.3,0.5-0.6
	c-3-2.5-6-5.1-9-7.7c-1-0.9-2.3-1.7-3.1-2.8c-0.6-0.8-0.9-2.3-1-3.3C0.6,57.4,2,56,3.1,54.7c3.8-4.6,7.6-9.1,11.4-13.7
	C24,29.6,33.5,18.2,43,6.8c0.8-1,1.6-2,2.4-2.9c1.7-1.9,3.9-3.5,6.6-3c2,0.4,3.8,1.6,5.5,2.8c2.8,2,5.4,4.4,8.1,6.6
	C65.9,10.6,66.4,10,66,9.7"/>
<path class="st0" d="M33.4,74.7c-3.2-1.9-6.1-4.4-8.9-6.8c-3.8-3.1-7.5-6.2-11.2-9.5c-1.4-1.3-2.9-2.5-4.3-3.9
	c-0.5-0.4-0.9-0.9-1.4-1.3c-0.1-0.1-0.3,0.5,0,0.2c0.9-1.1,1.8-2.2,2.7-3.3C19.5,39,28.6,27.9,37.7,16.8c1.8-2.2,3.7-4.5,5.5-6.7
	c0.6-0.7,1.2-1.5,1.8-2.2c0.2-0.3,0.6-1,1-1.2c0.4-0.2-0.4-0.1,0.2,0.1c-0.1,0,0.6,0.7,0.6,0.7c0.3,0.3,0.8,0.6,1.1,0.9
	c0.9,0.7,1.9,1.5,2.8,2.2c3,2.5,5.9,5.2,8.8,7.9c2,1.8,4.2,3.4,6.3,5.1c1.5,1.2,3,2.4,4.5,3.6c0.6,0.4,1.4,1.4,2.1,1.7
	c-1.2-0.4,0.4-0.6-0.2-0.4c-0.1,0.1-0.3,0.4-0.4,0.5c-0.5,0.5-0.9,1.1-1.4,1.6c-4,4.7-8,9.4-11.9,14.2c-8.3,9.9-16.7,19.6-24.9,29.6
	c-0.2,0.2-0.3,0.4-0.5,0.6c-0.3,0.4,0.3,0.8,0.6,0.5C45.1,61.6,56.5,48,68,34.4l4.8-5.7c0.1-0.2,0.1-0.4,0-0.5
	c-3.3-2.6-6.6-5.2-9.8-7.9C57.2,15.7,52,10.4,46.1,6c-0.2-0.1-0.4-0.1-0.5,0C34.3,19.8,23,33.5,11.6,47.3c-1.6,1.9-3.2,3.8-4.7,5.8
	c-0.1,0.2-0.1,0.4,0,0.5c4,4.1,8.5,7.8,12.9,11.4c4.3,3.6,8.5,7.4,13.3,10.3C33.5,75.6,33.8,74.9,33.4,74.7"/>
<path class="st0" d="M65,9.8c2.4,2,4.8,3.8,7.1,5.9c2.8,2.6,6.3,5.9,4.5,10.1c-0.7,1.7-2,3.1-3.2,4.6C69.6,34.9,65.8,39.4,62,44
	c-9.5,11.4-19,22.8-28.5,34.3c-0.8,1-1.6,2.1-2.6,3c-1.2,1.2-2.5,1.1-4,1c-1.8-0.1-2.9-1.1-4.3-2.2c-2.9-2.4-6-4.7-8.9-7.1
	c-0.4-0.3-0.8,0.3-0.5,0.6c2.8,2.3,5.8,4.6,8.6,6.9c1,0.8,1.9,1.7,3.1,2.2c0.9,0.4,1.7,0.4,2.7,0.4c2.3,0.1,3.6-1,5-2.6
	c3.8-4.6,7.6-9.2,11.5-13.8C54,54.8,63.9,42.9,73.8,31c1.5-1.8,3.3-3.7,3.9-6.1c0.9-3.5-1.5-6.3-3.8-8.6c-2.6-2.6-5.6-4.8-8.4-7.1
	C65.1,8.9,64.6,9.5,65,9.8"/>
<path class="st0" d="M65.4,15.8c-0.9-0.8-1.8-1.5-2.7-2.2c-0.7-0.5-1.6-1.3-2.4-1.6c-0.9-0.3-1.7,0.3-1.4,1.3
	c0.2,0.7,0.9,1.1,1.4,1.5c0.9,0.7,1.7,1.4,2.6,2.1c0.9,0.6,2.2,0.9,2.5-0.5c0.1-0.5-0.6-0.6-0.7-0.1c-0.2,1-3.1-1.4-3.3-1.6
	C60.9,14.4,59,13,60,12.7c0.4-0.1,2.2,1.4,2.5,1.7c0.8,0.6,1.6,1.2,2.3,1.9C65.3,16.7,65.7,16.1,65.4,15.8"/>
<path class="st0" d="M54,5.6c-0.4-0.8-1.5-0.9-2.3-0.5c-0.7,0.4-0.9,1.4-0.4,2c0.4,0.6,1.3,1,2,0.6c0.8-0.4,0.9-1.6,0.1-2.1
	c-0.4-0.2-0.7,0.4-0.3,0.7c0.4,0.2-0.2,0.8-0.5,0.8c-0.3,0-0.7-0.3-0.8-0.6C51.5,5.6,53,5.2,53.4,6C53.6,6.4,54.2,6,54,5.6"/>
<path class="st0" d="M15.5,68.1c0.8-1,2-1.4,3.2-1c-0.1-0.1-0.2-0.2-0.3-0.3c0.1,1.1-0.3,2.2-1.2,2.9c0.2,0,0.3,0,0.4,0
	c-0.6-0.6-1.3-1-2-1.4c-0.4-0.2-0.7,0.4-0.3,0.7c0.7,0.4,1.3,0.8,1.8,1.3c0.1,0.1,0.3,0.1,0.4,0c1-0.9,1.6-2.2,1.5-3.6
	c0-0.2-0.2-0.3-0.3-0.3c-1.4-0.4-3,0.1-3.9,1.3C14.6,68,15.2,68.5,15.5,68.1"/>
<path class="st0" d="M24.9,75.6c0.5-0.1,0.3,0.9,0.5,1.2c0.3,0.4,1.2,0.6,1.6,0.8c0.2,0.1,0.3,0,0.4-0.1c1.4-1.8-0.8-3.9-2.6-4.2
	c-0.7-0.1-1.6,0.2-1.8,1c-0.2,0.7,0.3,1.4,1,1.4c0.5,0,0.6-0.7,0.1-0.7c-0.3-0.7-0.2-1,0.3-0.9c0.3-0.1,0.5,0,0.7,0.1
	c0.3,0.1,0.7,0.4,1,0.6c0.7,0.5,1.4,1.4,0.7,2.3c0.1,0,0.3-0.1,0.4-0.1c-0.3-0.1-0.7-0.2-0.9-0.4c-0.3-0.2-0.3,0-0.3-0.3
	c-0.1-0.2,0.1-0.4-0.1-0.7c-0.2-0.5-0.8-0.7-1.3-0.6C24.2,75,24.4,75.7,24.9,75.6"/>
<path class="st0" d="M8.9,60c-0.5-0.5-1.1-0.9-1.8-1.3c-0.2-0.1-0.4,0-0.5,0.2c-0.5,1.1-0.1,2.2,0.8,3c0.7,0.7,1.8,1.7,2.9,1.5
	c0.8-0.2,1.2-1.1,0.9-1.8c-0.2-0.4-0.6-0.6-1-0.7c-0.2,0-0.4,0-0.6,0.1c-0.2,0.1-1.4,0.4-1-0.3c0.3-0.4-0.3-0.9-0.6-0.5
	C7.6,60.9,8,62,8.9,62c0.2,0,0.3-0.1,0.5-0.1l0.3-0.2c0,0.3,0,0.5,0,0.8c-0.1,0-0.5-0.3-0.6-0.3c-1-0.7-2.3-1.7-1.7-3.1
	c-0.2,0.1-0.3,0.1-0.5,0.2c0.6,0.4,1.1,0.8,1.6,1.2C8.8,60.9,9.2,60.3,8.9,60"/>
<path class="st0" d="M56.1,2.1c0.2-0.2,0.4-0.5,0.6-0.7c-0.2,0-0.3,0-0.5,0c2.3,1.7,4.5,3.4,6.7,5.2c0-0.2,0-0.3,0-0.5
	c-0.2,0.2-0.4,0.4-0.5,0.5c-0.4,0.3,0,0.9,0.4,0.6c0.4-0.3,0.4-0.2,0.7-0.7c0.1-0.2,0.1-0.4,0-0.5c-2.2-1.8-4.4-3.6-6.7-5.2
	c-0.2-0.1-0.4-0.1-0.5,0c-0.2,0.2-0.4,0.5-0.6,0.7C55.2,2,55.8,2.5,56.1,2.1"/>
</svg>
