<?xml version="1.0" encoding="utf-8"?>
<!-- Generator: Adobe Illustrator 19.0.0, SVG Export Plug-In . SVG Version: 6.00 Build 0)  -->
<svg version="1.1" id="Layer_1" xmlns="http://www.w3.org/2000/svg" xmlns:xlink="http://www.w3.org/1999/xlink" x="0px" y="0px"
	 viewBox="-744 984.9 45.8 80.1" enable-background="new -744 984.9 45.8 80.1" xml:space="preserve">
<rect id="XMLID_1_" x="-921.2" y="823.8" display="none" stroke="#FFFFFF" stroke-miterlimit="10" width="400" height="400"/>
<path fill="#FFFFFF" d="M-739.6,999.8c2.4-1.6,5-3.5,5.2-6.6c0.1-2.9-2.1-6-4.4-7.7c-1.9-1.4-2.6-0.2-2.5,1.7
	c0.2,4.4,0.4,8.7,1.4,12.9c0.1,0.6,1.1,0.4,1-0.3c-0.6-2.4-0.9-4.8-1-7.3c-0.1-1.1-0.2-2.3-0.3-3.5c0-0.6-0.1-1.2-0.1-1.8
	c-0.3-0.9-0.1-1.1,0.7-0.6c2.1,0.3,4,4.1,4.1,5.9c0.2,3.1-2.3,4.9-4.6,6.4C-740.6,999.3-740.1,1000.1-739.6,999.8"/>
<path fill="#FFFFFF" d="M-740.6,987.7c-0.8-0.9-1.6-1.4-2.8-1.7c-0.4-0.1-0.6,0.3-0.6,0.6c0.8,4.5,2.1,8.8,3.9,13
	c0.3,0.6,1.1,0.1,0.9-0.5c-1.8-4.1-3-8.3-3.8-12.7c-0.2,0.2-0.4,0.4-0.6,0.6c1,0.1,1.7,0.6,2.3,1.4
	C-740.9,988.8-740.2,988.1-740.6,987.7"/>
<path fill="#FFFFFF" d="M-744,989.1c1.8,6.7,3.1,13.8,5.6,20.3c1,2.6,2.5,4.5,4.2,6.7c1.9,2.6,3.2,5.5,3.9,8.7
	c1.4,6.2,0.9,12.6,0.2,18.8c-0.4,3.5-0.8,7-0.8,10.5c-0.1,3.5,0.7,7,0.3,10.4c-0.1,0.6,0.9,0.6,1,0c0.4-3.4-0.3-7-0.3-10.4
	c0.1-3.5,0.4-7,0.8-10.5c0.6-6.1,1.2-12.3-0.1-18.3c-0.5-2.6-1.4-5.1-2.7-7.4c-1.6-2.8-4-5-5.2-7.9c-1.4-3.2-2.1-6.7-3-10.1
	c-1-3.7-1.9-7.4-2.9-11.1C-743.2,988.2-744.1,988.4-744,989.1"/>
<path fill="#FFFFFF" d="M-740.4,1000.2c1.9,2.8,1.2,6.5,3.5,9.2c0.3,0.4,1,0,0.8-0.5c-1.1-2.8,0.3-6,3.2-6.9
	c-0.2-0.2-0.4-0.4-0.6-0.6c-0.2,1.6,0.5,2.7,0.8,4.3c0.6,2.5-0.7,4.8-2.9,5.9c-0.3,0.2-0.3,0.6-0.1,0.8c2.8,3.3,5.4,6.6,6.4,10.9
	c0.1,0.3,0.5,0.5,0.7,0.3c0.2-0.1,0.4-0.3,0.6-0.4c0.5-0.4,0-1.2-0.5-0.9c-0.2,0.1-0.4,0.3-0.6,0.4c0.2,0.1,0.5,0.2,0.7,0.3
	c-1-4.4-3.8-7.9-6.7-11.3c0,0.3-0.1,0.5-0.1,0.8c1.6-0.8,2.8-2.1,3.3-3.9c0.7-2.5-1.1-4.5-0.8-6.9c0-0.3-0.2-0.7-0.6-0.6
	c-3.4,1.1-5.2,4.8-3.9,8.2c0.3-0.2,0.6-0.3,0.8-0.5c-2.2-2.5-1.6-6.2-3.4-8.9C-739.9,999.1-740.7,999.6-740.4,1000.2"/>
<path fill="#FFFFFF" d="M-728.3,1022.9c5.2-7.1,9-15,11.3-23.5c0.1-0.3-0.3-0.8-0.6-0.6c-1.8,0.7-3.4,0.3-4.8-1
	c-0.7-0.6-2.1-2.3-2.2-3.4c1.7-1.7,2.8-1.8,3.4-0.3c0.4,0.5,0.7,1.1,1.1,1.6c0.7,1.1,1.4,2.2,2.1,3.3c0.4,0.5,1.2,0,0.9-0.5
	c-1.1-1.6-2.1-3.3-3.2-4.9c-0.6-0.9-1.2-2.1-2.2-2.6c-1.5-0.7-2.9,0.4-3.2,2c-0.7,4.1,4.6,8.2,8.3,6.7c-0.2-0.2-0.4-0.4-0.6-0.6
	c-2.3,8.4-6.1,16.2-11.2,23.2C-729.6,1022.9-728.7,1023.4-728.3,1022.9"/>
<path fill="#FFFFFF" d="M-720.6,991.7c0.8-2.2,3.7-2.2,4.5,0c0.4,1.1,0,2.4-0.4,3.5c-0.4,1.1-1.6,2.6-1,3.7c0.1,0.1,0.3,0.3,0.4,0.2
	c0.1,0,0.1,0,0.2,0c0.6-0.1,0.6-1.1,0-1c0.4,0,1.2-2.2,1.4-2.7c0.2-0.6,0.5-1.4,0.5-2.2c0.1-1.3-0.3-2.6-1.3-3.4
	c-1.9-1.7-4.5-0.5-5.3,1.7C-721.8,992.1-720.8,992.3-720.6,991.7"/>
<path fill="#FFFFFF" d="M-717.1,999.4c0.7,0.6,1.6,0.6,2.3,0.1s2.1-3.4,3.1-2.1c0.4,0.5,1.1-0.2,0.7-0.7c-0.6-0.7-1.5-0.7-2.3-0.3
	s-2.1,3.3-3.1,2.3C-716.8,998.2-717.5,998.9-717.1,999.4"/>
<path fill="#FFFFFF" d="M-715.7,1000.1c2.4-0.4,4.9-0.9,7.3-1.2c3-0.4,7.5,0.2,8.7,3.6c1.6,4.5-2.9,3.1-4.3,2.7
	c-1.1-0.3-2.2-0.8-3.3-1.2c-2.4-1-4.8-2.2-7.1-3.3c-0.1,0.3-0.3,0.6-0.4,0.9c0.1,0,0.2,0.1,0.4,0.1c0.6,0.2,0.9-0.8,0.3-1
	c-0.1,0-0.2-0.1-0.4-0.1c-0.5-0.2-0.9,0.7-0.4,0.9c2.5,1.2,16,9.2,16.7,2.7c0.3-2.6-2.7-5.2-4.9-6c-3.8-1.5-9,0.3-12.9,1
	C-716.6,999.2-716.3,1000.2-715.7,1000.1"/>
<path fill="#FFFFFF" d="M-701.3,1006.8c0.1,0.3,0.3,0.6,0.4,0.9c-0.3,0-0.6,0-0.8,0c-0.7,0.1-1.7-0.2-2.4-0.4
	c-1.5-0.4-2.8-1-4.1-1.8c-2.2-1.4-4.2-3.2-6.1-5c-0.3-0.2-0.6-0.2-0.8,0.1c-2.6,3.4-3.3,7.6-5.5,11.2c-2,3.3-4.9,5.8-6,9.6
	c-0.2,0.6,0.8,0.9,1,0.3c1.1-3.9,4.3-6.5,6.2-10c1.9-3.4,2.7-7.4,5.1-10.6c-0.3,0-0.5,0.1-0.8,0.1c3.8,3.6,8.5,7.8,14.1,7.5
	c1-0.1,2.8-0.4,2.7-1.7c-0.1-1.5-2.4-1.4-3.4-1.1C-702.2,1006-702,1007-701.3,1006.8"/>
<path fill="#FFFFFF" d="M-729,1025.3c1.8-4.7,6.9-5.6,11.3-5.8c0-0.3-0.1-0.7-0.1-1c-1.6,0.4-3.1,1-4.5,2c-1.8,1.3-3.5,4.1-6.1,3.5
	c-0.6-0.1-0.9,0.8-0.3,1c1.7,0.4,2.9-0.2,4.2-1.3c2.2-1.9,4-3.4,7-4.2c0.5-0.1,0.4-1-0.1-1c-4.9,0.2-10.3,1.5-12.3,6.6
	C-730.2,1025.7-729.2,1025.9-729,1025.3"/>
<path fill="#FFFFFF" d="M-727.6,1024.4c-0.9,6.4-1.3,12.9-1.1,19.4c0.2,6.8,1.5,13.7-0.1,20.5c-0.1,0.6,0.8,0.9,1,0.3
	c1.4-6.2,0.5-12.5,0.2-18.9c-0.4-7,0-14.1,1-21.1C-726.6,1024-727.5,1023.7-727.6,1024.4"/>
</svg>
